<svg width="560" height="483" viewBox="0 0 560 483" fill="none" xmlns="http://www.w3.org/2000/svg">
<g clip-path="url(#clip0_75_667)">
<path d="M60.9842 99.5544C75.6101 61.9449 113.588 34.5368 153.902 32.5703C194.215 30.6038 234.651 54.3247 252.841 90.4593C261.076 106.929 264.886 125.242 271.646 142.449C278.406 159.656 287.993 171.946 305.077 179.075C325.356 187.678 342.563 188.047 362.843 179.198C382.999 170.349 411.391 156.706 433.268 159.041C450.967 160.885 474.442 160.762 485.749 174.527C497.057 188.293 505.906 204.394 510.085 221.723C515.124 242.249 514.755 275.311 507.135 294.976C498.9 316.239 477.638 334.306 459.57 348.317C439.168 364.172 411.268 370.318 388.53 373.021C326.585 380.15 260.585 375.725 200.36 359.502C165.701 350.161 131.041 322.999 107.566 295.836C84.7052 269.411 65.4089 238.316 57.1741 204.394C48.9394 170.963 51.1517 130.65 63.5653 98.5711" fill="#EBEBEB"/>
<path d="M495.828 459.179C478.989 448.486 474.442 427.469 474.319 408.541C474.319 405.346 473.827 402.027 475.179 399.201C476.531 396.374 479.973 394.284 482.922 395.513C485.381 396.497 486.487 399.201 487.839 401.413C489.682 404.363 492.386 406.698 495.582 408.173C497.671 409.156 500.129 409.648 502.096 408.541C504.8 406.944 504.923 403.134 504.8 399.938C504.554 394.038 504.185 388.139 503.94 382.362C503.817 379.167 503.694 375.971 504.431 372.899C505.291 369.826 507.381 366.999 510.331 366.016C513.28 365.033 517.091 366.63 517.828 369.703C518.197 370.932 517.951 372.284 518.074 373.636C518.197 374.988 518.934 376.34 520.163 376.709C521.392 377.077 522.621 376.094 523.605 375.111C526.677 371.792 528.767 367.614 530.61 363.435C532.454 359.256 534.297 354.954 537.124 351.39C539.951 347.826 543.884 344.876 548.432 344.384C552.979 343.893 557.896 346.474 559.247 350.898C560.599 355.323 558.141 359.87 555.56 363.681C551.627 369.211 546.834 374.128 541.549 378.306C540.566 379.044 539.582 379.904 539.214 381.01C538.599 383.1 540.689 385.189 542.778 385.804C545.113 386.541 547.694 386.172 550.152 386.295C552.611 386.418 555.314 387.402 556.421 389.737C557.896 392.932 555.314 396.374 552.733 398.709C547.571 403.379 541.672 407.189 535.281 409.771C532.945 410.754 530.61 411.614 528.767 413.335C526.923 415.055 525.94 417.882 527.169 420.095C528.398 422.307 531.348 422.799 533.683 422.307C536.141 421.692 538.23 420.341 540.443 419.357C544.745 417.514 550.275 417.637 553.225 421.201C555.192 423.536 555.437 426.977 554.7 429.927C553.963 432.877 552.119 435.458 550.275 437.916C543.638 446.397 535.035 453.279 525.202 457.212C515.247 461.023 505.906 462.375 495.828 459.179Z" fill="#F07D22"/>
<path d="M496.196 473.19C496.565 465.693 497.794 456.721 500.252 447.011C502.588 437.302 506.152 426.855 510.208 416.039C511.191 413.335 512.174 410.631 513.28 408.05C514.264 405.469 515.247 402.888 516.353 400.43C518.565 395.513 521.146 390.843 523.605 386.541C526.186 382.239 528.644 378.306 531.102 374.496C533.56 370.809 535.895 367.368 538.108 364.418C542.532 358.396 546.834 353.971 549.784 351.021C551.259 349.546 552.488 348.44 553.348 347.703C553.717 347.334 554.085 347.088 554.331 346.842C554.577 346.597 554.7 346.597 554.7 346.597C554.7 346.597 554.577 346.719 554.454 346.965C554.208 347.211 553.962 347.457 553.594 347.826C552.856 348.563 551.627 349.669 550.152 351.267C547.203 354.217 543.147 358.764 538.722 364.787C536.51 367.859 534.175 371.178 531.839 374.988C529.504 378.675 526.923 382.731 524.465 387.033C522.007 391.335 519.426 395.882 517.213 400.798C516.107 403.257 515.124 405.838 514.141 408.419C513.158 411 512.174 413.704 511.068 416.407C507.012 427.223 503.571 437.547 501.113 447.257C498.655 456.967 497.425 465.816 496.934 473.313" fill="#263238"/>
<path d="M516.353 400.43C516.353 400.43 516.23 399.938 515.985 399.078C515.739 398.217 515.493 396.988 515.247 395.39C514.633 392.318 514.018 387.893 513.281 383.1C512.543 378.306 511.806 374.005 511.191 370.932C510.822 369.334 510.577 368.105 510.454 367.245C510.208 366.384 510.208 365.893 510.208 365.893C510.208 365.893 510.454 366.384 510.7 367.245C510.945 368.105 511.314 369.334 511.683 370.932C512.42 374.005 513.158 378.306 513.895 383.1C514.633 387.77 515.247 392.072 515.616 395.39C515.862 396.865 515.984 398.094 516.23 399.078C516.353 399.938 516.476 400.43 516.353 400.43Z" fill="#263238"/>
<path d="M556.666 391.089C556.666 391.089 556.052 391.212 555.069 391.335C554.085 391.458 552.488 391.703 550.644 391.949C546.957 392.564 541.918 393.424 536.264 394.776C530.733 396.128 525.694 397.48 522.13 398.586C520.286 399.078 518.934 399.569 517.951 399.938C516.968 400.307 516.353 400.43 516.353 400.43C516.353 400.43 516.845 400.184 517.828 399.815C518.811 399.446 520.163 398.832 522.007 398.34C525.571 397.111 530.487 395.636 536.141 394.407C541.672 393.055 546.834 392.195 550.521 391.703C552.365 391.458 553.84 391.335 554.946 391.212C556.052 391.089 556.666 391.089 556.666 391.089Z" fill="#263238"/>
<path d="M500.621 446.274C500.621 446.274 500.498 446.151 500.375 445.782C500.129 445.414 499.884 444.922 499.638 444.307C499.023 443.078 498.04 441.235 497.057 438.899C494.844 434.352 492.141 427.961 489.191 420.832C486.241 413.704 483.537 407.313 481.448 402.765C480.464 400.553 479.604 398.709 478.99 397.357C478.744 396.743 478.498 396.251 478.375 395.882C478.621 396.251 478.867 396.743 479.112 397.357C479.727 398.586 480.71 400.43 481.693 402.765C483.906 407.313 486.61 413.704 489.56 420.832C492.509 427.961 495.213 434.352 497.303 438.899C498.286 441.112 499.146 442.955 499.761 444.307C500.007 444.922 500.252 445.414 500.375 445.782C500.621 446.028 500.621 446.274 500.621 446.274Z" fill="#263238"/>
<path d="M553.84 426.609C553.84 426.609 553.717 426.732 553.348 426.854C552.979 426.977 552.365 427.223 551.75 427.469C550.275 427.961 548.432 428.698 546.097 429.558C541.303 431.402 534.666 433.86 527.415 436.687C520.163 439.514 513.526 441.972 508.61 443.693C506.152 444.553 504.185 445.168 502.833 445.659C502.219 445.905 501.727 446.028 501.236 446.151C500.867 446.274 500.621 446.274 500.621 446.274C500.621 446.274 500.744 446.151 501.113 446.028C501.481 445.905 502.096 445.659 502.71 445.413C504.185 444.922 506.029 444.184 508.364 443.324C513.158 441.48 519.795 439.022 527.046 436.195C534.298 433.369 540.934 430.91 545.851 429.19C548.309 428.329 550.275 427.715 551.627 427.223C552.242 426.977 552.733 426.855 553.225 426.732C553.594 426.609 553.84 426.609 553.84 426.609Z" fill="#263238"/>
<path d="M2.48068 435.089C5.30754 434.352 8.50311 435.089 10.9612 436.564C13.4194 438.162 15.3859 440.497 16.9837 442.955C20.0563 447.749 21.0396 454.263 21.1625 460.039C14.7713 459.794 9.48636 454.754 6.90532 452.05C2.8494 447.749 -1.94395 437.547 2.48068 435.089Z" fill="#F07D22"/>
<path d="M31.3637 463.972C28.7827 461.883 27.6765 458.319 28.1681 455.123C28.7827 451.927 30.8721 448.978 33.576 447.134C34.8051 446.274 36.4029 445.659 37.8778 446.028C39.2297 446.397 40.213 447.749 40.4588 449.224C40.7046 450.576 40.4588 452.05 39.9672 453.402C38.3694 457.95 35.9113 462.129 31.3637 463.972Z" fill="#F07D22"/>
<path d="M37.1404 482.04C37.1404 482.04 36.8945 481.671 36.5258 481.056C36.1571 480.319 35.6655 479.336 35.0509 478.107C33.8219 475.649 32.347 472.084 31.4866 467.905C30.7492 463.727 31.2408 459.794 32.347 457.213C32.8386 455.861 33.4532 454.877 33.9448 454.263C34.4364 453.648 34.6822 453.28 34.6822 453.402C34.8051 453.525 33.699 454.754 32.7157 457.335C31.8554 459.917 31.3637 463.727 32.1012 467.783C32.8386 471.838 34.3135 475.403 35.4197 477.861C36.5258 480.442 37.2633 481.917 37.1404 482.04Z" fill="#263238"/>
<path d="M6.7824 442.587C6.7824 442.587 7.27403 443.078 8.13437 444.062C8.99472 445.045 10.2238 446.397 11.6987 448.117C14.6484 451.559 18.7043 456.475 23.0061 461.883C27.3078 467.291 31.1179 472.33 33.6989 476.017C35.0509 477.861 36.1571 479.336 36.7716 480.442C37.509 481.548 37.8778 482.04 37.8778 482.163C37.8778 482.163 37.3861 481.671 36.6487 480.688C35.7884 479.582 34.6822 478.107 33.3302 476.386C30.6263 472.822 26.6933 467.783 22.5144 462.375C18.2127 456.967 14.2797 452.05 11.4529 448.486C10.1009 446.765 8.99472 445.414 8.01147 444.307C7.27403 443.201 6.7824 442.587 6.7824 442.587Z" fill="#263238"/>
<path d="M27.062 470.978C21.6541 466.676 14.0339 465.201 7.39695 467.168C5.67626 467.66 3.83266 468.766 3.70975 470.486C3.58685 472.207 5.18463 473.682 6.78242 474.419C13.4194 477.738 22.0228 476.509 27.4307 471.47" fill="#F07D22"/>
<path d="M11.6987 470.364C11.6987 470.364 12.0674 470.241 12.8048 469.995C13.1735 469.872 13.6652 469.749 14.1568 469.749C14.6484 469.626 15.263 469.626 15.8775 469.626C17.2295 469.503 18.8273 469.626 20.5479 469.872C22.2686 470.118 24.1122 470.609 26.0787 471.347C27.9223 472.084 29.643 473.067 31.1179 474.051C32.5928 475.034 33.6989 476.14 34.6822 477.123C35.1738 477.615 35.5425 478.107 35.9113 478.475C36.28 478.844 36.5258 479.213 36.7716 479.582C37.1403 480.196 37.3861 480.565 37.3861 480.565C37.2632 480.688 36.4029 479.213 34.5593 477.492C33.576 476.632 32.4699 475.649 30.995 474.665C29.5201 473.682 27.9223 472.822 26.0787 472.084C24.2351 471.347 22.3915 470.855 20.6709 470.609C18.9502 470.364 17.4753 470.241 16.1233 470.241C13.2965 470.118 11.6987 470.486 11.6987 470.364Z" fill="#263238"/>
<path d="M74.5039 212.26L408.687 40.0676L387.178 9.83253L496.319 0L447.157 88.3699L424.173 59.7326L85.6884 245.69L74.5039 212.26Z" fill="#F07D22"/>
<path d="M132.393 334.552H55.4534V482.777H132.393V334.552Z" fill="#263238"/>
<path d="M111.499 334.552H34.5593V482.777H111.499V334.552Z" fill="#455A64"/>
<path d="M252.596 285.143H175.656V482.9H252.596V285.143Z" fill="#263238"/>
<path d="M229.243 285.143H152.304V482.9H229.243V285.143Z" fill="#455A64"/>
<path d="M376.117 222.584H299.177V482.9H376.117V222.584Z" fill="#263238"/>
<path d="M352.887 222.584H275.948V482.9H352.887V222.584Z" fill="#455A64"/>
<path d="M500.13 167.645H423.19V482.777H500.13V167.645Z" fill="#263238"/>
<path d="M469.403 167.645H392.463V482.777H469.403V167.645Z" fill="#455A64"/>
<path d="M76.5934 311.077L83.7219 305.177L72.7833 291.657L62.2133 300.138L62.8278 300.998C65.6547 304.931 77.4537 320.663 80.1576 322.507C83.2303 324.719 76.5934 311.077 76.5934 311.077Z" fill="#E8505B"/>
<g opacity="0.5">
<path d="M66.2692 305.054C67.2525 303.948 67.7441 302.473 67.7441 300.998C67.7441 299.523 67.1296 298.172 66.1463 297.065L62.3362 300.138L66.2692 305.054Z" fill="white"/>
</g>
<g opacity="0.4">
<path d="M79.666 317.959C79.666 317.959 81.7554 322.876 80.6493 322.999C79.5431 322.999 67.1296 307.635 62.2133 300.261L62.582 300.015L76.9621 318.082C76.9621 318.082 78.9286 317.099 79.666 317.959Z" fill="white"/>
</g>
<path d="M62.3362 299.769C62.3362 299.769 62.3362 299.892 62.4591 300.015C62.582 300.261 62.8278 300.507 62.9507 300.752C63.4424 301.49 64.0569 302.35 64.7943 303.333C66.3921 305.423 68.6044 308.373 71.1855 311.568C73.7665 314.764 76.1017 317.591 77.9453 319.557C78.8057 320.54 79.4202 321.278 80.0347 321.892C80.2806 322.138 80.4035 322.384 80.6493 322.507C80.7722 322.63 80.8951 322.753 80.8951 322.753C80.8951 322.753 80.8951 322.63 80.7722 322.507C80.6493 322.261 80.4035 322.138 80.2806 321.892C79.666 321.278 79.0515 320.417 78.1911 319.434C76.4705 317.345 74.1352 314.518 71.5542 311.445C68.9732 308.25 66.7608 305.423 65.0401 303.211C64.3027 302.227 63.6882 301.367 63.0736 300.752C62.8278 300.507 62.7049 300.261 62.582 300.015C62.4591 299.892 62.3362 299.769 62.3362 299.769Z" fill="#263238"/>
<path d="M76.7163 318.328C76.7163 318.328 77.3308 317.959 78.3141 317.837C79.1744 317.714 79.9119 317.959 79.9119 317.959C79.9119 317.959 79.1744 317.591 78.3141 317.714C77.3308 317.714 76.7163 318.205 76.7163 318.328Z" fill="#263238"/>
<path d="M75.4872 312.674C75.4872 312.674 75.8559 312.674 76.3475 312.674C76.8392 312.674 77.2079 312.552 77.2079 312.429C77.2079 312.429 76.8392 312.429 76.3475 312.429C75.8559 312.552 75.4872 312.552 75.4872 312.674Z" fill="#263238"/>
<path d="M75.2414 311.077C75.2414 311.077 75.4872 311.2 75.9789 311.322C76.3476 311.445 76.7163 311.445 76.7163 311.322C76.7163 311.322 76.4705 311.2 75.9789 311.077C75.4872 311.077 75.2414 311.077 75.2414 311.077Z" fill="#263238"/>
<path d="M75.8559 309.356C75.8559 309.356 75.9788 309.725 76.3476 310.093C76.7163 310.462 76.9621 310.831 76.9621 310.708C76.9621 310.708 76.8392 310.339 76.4705 309.971C76.2246 309.602 75.9788 309.356 75.8559 309.356Z" fill="#263238"/>
<path d="M76.5934 308.373C76.5934 308.373 76.7163 308.864 76.9621 309.356C77.3308 309.848 77.6995 310.093 77.6995 310.093C77.6995 310.093 77.4537 309.725 77.085 309.233C76.8392 308.864 76.7163 308.373 76.5934 308.373Z" fill="#263238"/>
<path d="M77.085 312.183C77.085 312.183 77.3308 312.552 77.8224 313.043C78.0682 313.289 78.437 313.535 78.8057 313.781C79.0515 313.903 79.1744 314.026 79.4202 314.149C79.5431 314.149 79.666 314.272 79.9118 314.149C80.0347 314.026 80.1577 313.903 80.1577 313.781C79.9118 312.552 78.8057 312.183 78.0682 312.183C77.6995 312.183 77.4537 312.306 77.2079 312.429C77.085 312.552 76.9621 312.552 76.9621 312.552C76.9621 312.552 77.3308 312.306 78.0682 312.306C78.437 312.306 78.8057 312.429 79.1744 312.674C79.5431 312.92 79.9118 313.289 79.9118 313.781C79.9118 314.026 79.666 314.026 79.5431 314.026C79.2973 313.903 79.1744 313.781 78.9286 313.658C78.5599 313.412 78.1911 313.166 77.9453 312.92C77.3308 312.429 77.085 312.183 77.085 312.183Z" fill="#263238"/>
<path d="M77.2079 312.429C77.2079 312.429 77.5766 312.429 77.9453 312.06C78.0682 311.937 78.314 311.568 78.437 311.322C78.5599 310.954 78.5599 310.585 78.314 310.216C78.0682 310.093 77.8224 310.093 77.6995 310.216C77.5766 310.339 77.4537 310.585 77.4537 310.708C77.3308 310.954 77.3308 311.322 77.2079 311.568C77.085 312.06 77.085 312.306 77.2079 312.429C77.2079 312.306 77.2079 312.06 77.2079 311.568C77.2079 311.322 77.3308 311.077 77.4537 310.831C77.5766 310.585 77.8224 310.216 78.0682 310.339C78.314 310.585 78.1911 310.954 78.1911 311.2C78.0682 311.445 77.9453 311.691 77.8224 311.937C77.4537 312.306 77.2079 312.429 77.2079 312.429Z" fill="#263238"/>
<path d="M66.2692 297.065C66.2692 297.065 66.6379 297.434 67.0067 298.049C67.3754 298.663 67.867 299.769 67.867 300.998C67.867 302.227 67.4983 303.211 67.0067 303.948C66.6379 304.563 66.2692 304.931 66.2692 304.931C66.2692 304.931 66.3921 304.808 66.515 304.686C66.6379 304.563 66.8837 304.317 67.1296 303.948C67.6212 303.334 67.9899 302.227 67.9899 300.998C67.9899 299.769 67.4983 298.663 67.0067 298.049C66.7608 297.68 66.515 297.434 66.3921 297.311C66.3921 297.188 66.2692 297.065 66.2692 297.065Z" fill="#263238"/>
<path d="M73.0291 293.87C73.0291 293.87 71.6771 294.73 70.2022 295.959C68.6044 297.188 67.3754 298.171 67.4983 298.294C67.4983 298.294 68.8502 297.434 70.3251 296.205C71.8 294.976 73.0291 293.993 73.0291 293.87Z" fill="#263238"/>
<path d="M68.9732 305.669C68.9732 305.669 69.4648 306.652 70.3251 307.758C71.1855 308.864 72.0458 309.602 72.0458 309.602C72.0458 309.602 71.3084 308.741 70.448 307.635C69.7106 306.529 68.9732 305.669 68.9732 305.669Z" fill="#263238"/>
<path d="M66.7608 302.965C66.7608 302.965 66.6379 303.211 66.515 303.456C66.3921 303.702 66.2692 303.948 66.2692 303.948C66.2692 303.948 66.515 303.825 66.6379 303.579C66.8837 303.334 66.8837 303.088 66.7608 302.965Z" fill="#263238"/>
<path d="M67.2525 300.998C67.2525 300.998 67.1295 301.244 67.1295 301.49C67.1295 301.736 67.1295 301.982 67.1295 301.982C67.1295 301.982 67.2525 301.736 67.2525 301.49C67.3754 301.244 67.2525 300.998 67.2525 300.998Z" fill="#263238"/>
<path d="M66.6379 299.155C66.6379 299.155 66.7608 299.4 66.8838 299.646C67.0067 299.892 67.0067 300.138 67.0067 300.138C67.0067 300.138 67.1296 299.892 67.0067 299.523C66.8838 299.277 66.6379 299.032 66.6379 299.155Z" fill="#263238"/>
<path d="M66.1463 297.926C66.1463 297.926 66.0234 298.049 66.1463 298.171C66.1463 298.294 66.2692 298.417 66.3921 298.417C66.3921 298.417 66.515 298.294 66.3921 298.171C66.2692 297.926 66.1463 297.926 66.1463 297.926Z" fill="#263238"/>
<path d="M213.143 280.35L213.388 271.009L196.181 270.394L195.567 283.914L196.673 284.037C201.466 284.529 221.009 286.004 224.327 285.143C227.891 284.283 213.143 280.35 213.143 280.35Z" fill="#E8505B"/>
<g opacity="0.5">
<path d="M201.835 284.16C201.589 282.685 200.852 281.333 199.746 280.35C198.64 279.367 197.165 278.875 195.69 278.875L195.444 283.791L201.835 284.16Z" fill="white"/>
</g>
<g opacity="0.4">
<path d="M220.394 282.562C220.394 282.562 225.556 284.283 224.819 285.143C224.081 286.004 204.293 285.143 195.567 284.037V283.668L218.673 284.775C218.673 284.775 219.288 282.562 220.394 282.562Z" fill="white"/>
</g>
<path d="M195.321 283.546C195.321 283.546 195.444 283.546 195.567 283.546C195.813 283.546 196.059 283.546 196.427 283.668C197.288 283.791 198.394 283.791 199.623 283.914C202.327 284.16 206.014 284.283 210.07 284.529C214.126 284.652 217.813 284.775 220.517 284.775C221.746 284.775 222.852 284.775 223.713 284.775C224.081 284.775 224.327 284.775 224.573 284.775C224.819 284.775 224.819 284.775 224.819 284.775C224.819 284.775 224.696 284.775 224.573 284.775C224.327 284.775 224.081 284.775 223.713 284.775C222.852 284.775 221.746 284.775 220.517 284.775C217.813 284.775 214.126 284.652 210.07 284.529C206.014 284.406 202.327 284.16 199.623 284.037C198.394 283.914 197.288 283.914 196.427 283.791C196.059 283.791 195.813 283.791 195.567 283.791C195.444 283.546 195.321 283.546 195.321 283.546Z" fill="#263238"/>
<path d="M218.673 285.02C218.796 285.02 218.796 284.283 219.288 283.545C219.78 282.808 220.394 282.439 220.394 282.439C220.394 282.439 219.657 282.685 219.042 283.545C218.673 284.16 218.673 285.02 218.673 285.02Z" fill="#263238"/>
<path d="M213.634 282.194C213.634 282.194 213.88 281.948 214.249 281.579C214.495 281.21 214.74 280.842 214.617 280.842C214.617 280.842 214.372 281.087 214.003 281.456C213.757 281.825 213.634 282.194 213.634 282.194Z" fill="#263238"/>
<path d="M212.282 281.333C212.282 281.333 212.651 281.21 212.897 280.964C213.265 280.719 213.388 280.473 213.388 280.473C213.388 280.473 213.02 280.596 212.774 280.842C212.528 281.087 212.282 281.333 212.282 281.333Z" fill="#263238"/>
<path d="M211.422 279.735C211.422 279.735 211.791 279.858 212.282 279.858C212.774 279.858 213.143 279.858 213.143 279.858C213.143 279.858 212.774 279.735 212.282 279.735C211.914 279.613 211.422 279.613 211.422 279.735Z" fill="#263238"/>
<path d="M211.176 278.506C211.176 278.506 211.545 278.752 212.159 278.875C212.774 278.998 213.265 278.875 213.265 278.752C213.265 278.752 212.774 278.752 212.282 278.629C211.668 278.629 211.176 278.506 211.176 278.506Z" fill="#263238"/>
<path d="M214.372 280.719C214.372 280.719 214.74 280.842 215.478 280.719C215.847 280.719 216.215 280.596 216.707 280.473C216.953 280.35 217.198 280.35 217.444 280.227C217.567 280.104 217.69 280.104 217.69 279.858C217.69 279.735 217.69 279.49 217.567 279.367C216.461 278.752 215.478 279.367 214.986 279.858C214.74 280.104 214.617 280.35 214.617 280.596C214.617 280.842 214.617 280.842 214.617 280.842C214.617 280.842 214.74 280.35 215.109 279.858C215.355 279.613 215.724 279.367 216.092 279.244C216.461 279.121 217.076 279.121 217.444 279.367C217.567 279.49 217.567 279.735 217.321 279.858C217.076 279.981 216.953 279.981 216.707 280.104C216.338 280.227 215.847 280.35 215.601 280.35C214.74 280.719 214.372 280.719 214.372 280.719Z" fill="#263238"/>
<path d="M214.617 280.719C214.617 280.719 214.863 280.473 214.74 279.981C214.74 279.735 214.617 279.489 214.495 279.121C214.249 278.875 214.126 278.506 213.634 278.506C213.388 278.506 213.265 278.875 213.265 278.998C213.265 279.244 213.388 279.367 213.388 279.489C213.511 279.735 213.757 279.981 213.88 280.227C214.249 280.596 214.495 280.719 214.617 280.719C214.495 280.719 214.249 280.473 214.003 280.104C213.88 279.981 213.757 279.735 213.511 279.367C213.388 279.121 213.265 278.752 213.511 278.629C213.757 278.629 214.126 278.875 214.249 279.121C214.372 279.367 214.495 279.612 214.495 279.858C214.74 280.473 214.617 280.719 214.617 280.719Z" fill="#263238"/>
<path d="M195.813 278.875C195.813 278.875 196.304 278.875 197.042 278.998C197.779 279.121 198.885 279.49 199.746 280.227C200.606 280.965 201.221 282.071 201.344 282.808C201.589 283.546 201.589 284.037 201.589 284.037C201.589 284.037 201.589 283.914 201.589 283.668C201.589 283.423 201.589 283.177 201.466 282.685C201.221 281.948 200.729 280.842 199.869 279.981C198.885 279.121 197.779 278.752 197.042 278.752C196.673 278.752 196.304 278.752 196.059 278.752C195.936 278.752 195.813 278.875 195.813 278.875Z" fill="#263238"/>
<path d="M197.902 271.746C197.902 271.746 197.656 273.344 197.656 275.311C197.533 277.277 197.533 278.875 197.533 278.875C197.533 278.875 197.779 277.277 197.779 275.311C197.902 273.344 198.025 271.746 197.902 271.746Z" fill="#263238"/>
<path d="M204.047 282.439C204.047 282.439 205.154 282.685 206.629 282.808C207.98 282.931 209.21 282.808 209.21 282.685C209.21 282.685 208.103 282.685 206.629 282.562C205.277 282.562 204.17 282.439 204.047 282.439Z" fill="#263238"/>
<path d="M200.729 282.316C200.729 282.316 200.852 282.562 200.975 282.808C201.098 283.054 201.098 283.3 201.221 283.3C201.221 283.3 201.344 283.054 201.221 282.685C200.975 282.439 200.729 282.316 200.729 282.316Z" fill="#263238"/>
<path d="M199.5 280.719C199.5 280.719 199.623 280.965 199.746 281.087C199.869 281.333 200.114 281.456 200.114 281.333C200.114 281.333 199.992 281.087 199.869 280.965C199.746 280.842 199.5 280.719 199.5 280.719Z" fill="#263238"/>
<path d="M197.656 279.858C197.656 279.858 197.902 279.981 198.148 279.981C198.394 280.104 198.64 280.227 198.64 280.227C198.64 280.227 198.517 279.981 198.271 279.858C197.902 279.735 197.656 279.858 197.656 279.858Z" fill="#263238"/>
<path d="M196.427 279.49C196.427 279.49 196.55 279.613 196.673 279.735C196.796 279.858 196.919 279.858 196.919 279.735C196.919 279.735 196.796 279.613 196.673 279.49C196.55 279.49 196.427 279.49 196.427 279.49Z" fill="#263238"/>
<path d="M221.132 47.442C219.534 46.9504 216.953 55.4309 216.461 53.2186C215.969 51.1292 220.886 43.3861 219.165 42.8945C217.076 42.4028 214.495 51.2521 214.126 51.8666C213.88 52.6041 212.774 52.2353 213.02 51.6208C213.388 50.6376 217.444 40.805 215.355 40.3134C214.249 40.0676 213.88 42.157 213.88 42.157C213.88 42.157 210.807 51.6208 209.824 51.375C208.841 51.1292 210.439 45.4755 211.176 43.6319C211.791 41.7883 211.299 40.6821 210.193 41.0509C209.455 41.2967 207.243 46.9504 206.629 48.794C206.014 50.6376 204.293 55.7996 203.064 52.6041C201.835 49.4085 199.623 47.442 198.763 47.3191C197.779 47.1962 197.288 48.4252 198.025 49.1627C198.64 49.7772 199.377 51.1292 199.869 52.1124C200.237 52.9728 200.606 53.8331 200.729 54.8164C201.221 58.3807 200.975 60.3472 200.975 60.3472L184.137 95.2527L153.287 85.6659L150.214 103.242C150.214 103.242 190.896 118.359 193.232 116.761C198.64 113.443 213.265 63.174 213.265 63.174C215.724 59.4868 218.673 54.8164 219.902 52.3583C222.115 47.8107 221.746 47.5649 221.132 47.442Z" fill="#B78876"/>
<path d="M63.3194 165.432C62.582 164.941 61.7217 163.712 61.1071 162.851C60.6155 162.114 60.1239 161.253 60.001 160.393C59.5093 158.672 59.2635 157.32 59.1406 156.337C59.1406 156.337 69.7106 124.75 72.5374 119.834C75.3643 114.918 113.957 101.029 113.957 101.029L109.164 81.7329C109.164 81.7329 73.7665 95.9901 60.2468 106.56C51.6433 113.32 45.498 155.477 45.498 155.477C43.7773 159.164 41.9337 163.22 41.1963 165.432C39.5985 170.226 40.0901 170.471 40.7046 170.471C42.3024 170.717 43.7773 161.991 44.5147 164.08C45.2522 166.17 41.565 174.404 43.1628 174.65C45.3751 174.896 46.727 165.801 46.85 165.064C46.9729 164.326 48.079 164.572 47.9561 165.186C47.7103 166.17 45.0064 176.494 47.2187 176.74C48.4477 176.863 48.4477 174.65 48.4477 174.65C48.4477 174.65 50.1684 164.818 51.2746 164.941C52.2578 165.064 51.5204 170.84 51.0288 172.807C50.6601 174.773 51.3975 175.756 52.3808 175.142C53.1182 174.773 54.4702 168.874 54.8389 166.907C55.2076 164.941 56.1909 159.656 57.7886 162.605C59.5093 165.555 61.8446 167.276 62.8278 167.276C63.8111 167.399 64.1798 166.047 63.3194 165.432Z" fill="#B78876"/>
<path d="M65.0401 293.747L82.4929 313.289L137.555 257.612C144.315 250.729 148.371 241.757 148.862 232.171L151.198 188.662L115.432 166.784L118.259 227.746C118.627 234.383 116.169 240.774 111.499 245.567L65.0401 293.747Z" fill="#263238"/>
<path d="M108.303 168.505C107.935 168.997 106.705 196.651 128.952 200.092C130.304 200.338 138.292 201.075 138.292 201.075C163.488 200.829 197.411 199.969 197.411 199.969L191.757 277.277L218.428 277.4L226.539 194.807C228.383 171.946 208.964 168.013 198.394 167.768L147.265 167.276L108.303 168.505Z" fill="#263238"/>
<path d="M134.359 168.505C134.482 168.505 134.359 169.488 133.745 170.963C133.13 172.438 131.656 174.282 129.443 175.511C127.231 176.617 124.896 176.74 123.298 176.494C121.7 176.248 120.84 175.634 120.84 175.634C120.84 175.511 121.823 175.879 123.298 176.002C124.773 176.125 126.985 176.002 129.074 174.896C131.164 173.79 132.516 172.069 133.253 170.717C133.991 169.365 134.237 168.382 134.359 168.505Z" fill="#455A64"/>
<path d="M204.293 194.807C204.416 194.93 202.941 196.159 201.098 197.511C199.254 198.863 197.656 199.846 197.533 199.723C197.411 199.6 198.885 198.371 200.729 197.019C202.573 195.667 204.17 194.684 204.293 194.807Z" fill="#455A64"/>
<path d="M205.399 199.355C205.399 199.477 203.679 199.846 201.344 200.092C199.131 200.338 197.288 200.338 197.288 200.215C197.288 200.092 199.008 199.723 201.344 199.477C203.556 199.232 205.399 199.232 205.399 199.355Z" fill="#455A64"/>
<path d="M120.84 88.124C126.125 88.124 130.426 83.8223 130.181 78.5373C130.058 73.4981 129.812 68.3361 129.812 68.3361C129.812 68.3361 137.432 67.107 137.432 59.4868C137.432 51.8666 135.957 34.2909 135.957 34.2909C127.108 30.6037 116.907 31.9557 109.287 37.9781L108.18 38.8385L111.499 79.6435C111.99 84.3139 115.923 88.124 120.84 88.124Z" fill="#B78876"/>
<path d="M133.253 47.8107C132.762 47.442 132.762 46.7045 133.13 46.2129C133.499 45.7213 134.237 45.7213 134.728 46.09C135.22 46.4587 135.22 47.1961 134.851 47.6878C134.482 48.1794 133.745 48.1794 133.253 47.8107Z" fill="#263238"/>
<path d="M136.203 46.3358C136.08 46.4587 135.343 45.8442 134.237 45.9671C133.13 45.9671 132.393 46.5816 132.27 46.3358C132.27 46.3358 132.27 46.09 132.639 45.7213C133.007 45.4755 133.499 45.2296 134.237 45.2296C134.851 45.2296 135.466 45.4755 135.834 45.7213C136.08 45.9671 136.203 46.2129 136.203 46.3358Z" fill="#263238"/>
<path d="M123.298 47.0732C123.789 47.4419 124.035 48.0565 123.667 48.5481C123.298 49.0397 122.683 49.2855 122.192 48.9168C121.7 48.5481 121.454 47.9336 121.823 47.4419C122.069 46.9503 122.683 46.8274 123.298 47.0732Z" fill="#263238"/>
<path d="M124.773 47.3191C124.65 47.442 123.912 46.8274 122.806 46.9503C121.7 46.9503 120.963 47.5649 120.84 47.3191C120.84 47.3191 120.84 47.0732 121.208 46.7045C121.577 46.4587 122.069 46.2129 122.806 46.2129C123.421 46.2129 124.035 46.4587 124.404 46.7045C124.65 47.0732 124.773 47.3191 124.773 47.3191Z" fill="#263238"/>
<path d="M129.074 55.1851C129.074 55.0621 129.689 54.9392 130.795 54.8163C131.041 54.8163 131.287 54.6934 131.287 54.5705C131.287 54.4476 131.164 54.0789 131.041 53.8331C130.795 53.0956 130.426 52.4811 130.181 51.7437C128.952 48.671 128.214 46.2129 128.337 46.09C128.46 46.09 129.566 48.4252 130.795 51.4979C131.041 52.2353 131.287 52.9727 131.656 53.5873C131.778 53.956 131.901 54.3247 131.778 54.6934C131.656 54.9392 131.533 55.0621 131.287 55.1851C131.164 55.1851 130.918 55.1851 130.795 55.308C129.689 55.308 129.074 55.308 129.074 55.1851Z" fill="#263238"/>
<path d="M125.633 56.4142C126.248 56.66 128.706 58.012 130.795 57.8891C130.795 57.8891 129.566 59.8556 127.354 59.1181C125.141 58.2578 125.633 56.4142 125.633 56.4142Z" fill="white"/>
<path d="M129.812 68.0903C129.812 68.0903 125.019 68.5819 119.856 65.3863C119.856 65.3863 122.315 70.9171 129.935 70.0568L129.812 68.0903Z" fill="#A36957"/>
<path d="M107.32 45.5984C107.812 44.1235 107.443 42.5257 107.074 41.0509C106.705 39.576 106.214 38.1011 106.214 36.6262C106.337 35.1513 107.074 33.5536 108.549 33.0619C109.532 32.6932 110.761 32.939 111.745 32.6932C112.851 32.4474 113.588 31.587 114.449 30.7267C117.521 27.8999 121.331 25.9333 125.387 25.1959C126.616 24.9501 127.845 24.8272 128.952 25.4417C130.058 25.9333 130.918 27.2853 130.426 28.3915C131.901 27.5311 133.499 26.6708 135.343 26.425C137.063 26.1792 139.03 26.6708 140.013 28.2686C140.996 29.7434 140.382 32.2016 138.661 32.5703C140.628 32.8161 141.98 35.1513 141.488 37.1178C140.996 39.0844 139.153 40.5592 137.186 40.9279C135.22 41.2967 133.13 40.9279 131.287 40.1905C129.443 39.4531 127.6 38.4698 125.756 37.7324C124.65 39.4531 122.315 40.1905 120.225 40.1905C118.136 40.0676 116.169 39.2073 114.203 38.4698C114.326 40.6821 114.571 43.0174 113.711 44.9839C113.342 45.8442 112.851 46.5817 112.605 47.442C112.236 48.6711 112.482 49.9001 112.359 51.1292C112.236 52.3583 111.622 53.7102 110.393 53.8331C109.286 53.956 108.303 53.0957 107.935 52.1125C107.566 51.1292 107.689 49.9001 107.689 48.794C107.812 47.442 106.828 46.5817 107.32 45.5984Z" fill="#263238"/>
<path d="M109.287 48.0565C109.287 47.4419 108.672 46.9503 108.057 46.9503C106.583 47.0732 104.37 47.6878 104.37 51.6208C104.493 57.2745 109.778 55.4309 109.778 55.308C109.901 55.308 109.409 50.2688 109.287 48.0565Z" fill="#B78876"/>
<path d="M108.426 53.2186C108.426 53.2186 108.303 53.3415 108.18 53.3415C108.057 53.4644 107.689 53.4644 107.443 53.3415C106.828 53.0957 106.337 52.2353 106.337 51.1292C106.337 50.6375 106.46 50.1459 106.583 49.7772C106.705 49.4085 106.951 49.0397 107.32 49.0397C107.566 48.9168 107.812 49.1626 107.935 49.2856C108.057 49.4085 107.935 49.5314 108.057 49.5314C108.057 49.5314 108.18 49.4085 108.18 49.1626C108.18 49.0397 108.057 48.9168 107.935 48.7939C107.812 48.671 107.566 48.671 107.443 48.671C106.951 48.671 106.583 49.1626 106.46 49.5314C106.214 50.023 106.091 50.5146 106.091 51.1292C106.091 52.2353 106.705 53.3415 107.566 53.5873C107.935 53.7102 108.303 53.5873 108.426 53.4644C108.426 53.4644 108.426 53.3415 108.426 53.2186Z" fill="#A36957"/>
<path d="M124.527 43.2632C124.527 43.509 123.298 43.3861 121.946 43.7548C120.594 44.1235 119.488 44.738 119.365 44.4922C119.242 44.3693 120.225 43.509 121.7 43.1403C123.298 42.7715 124.65 43.1403 124.527 43.2632Z" fill="#263238"/>
<path d="M127.6 64.7718C127.477 64.7718 127.354 64.0344 127.354 63.0511C127.354 62.0679 127.6 61.3304 127.722 61.3304C127.845 61.3304 127.968 62.0679 127.968 63.0511C127.968 64.0344 127.845 64.7718 127.6 64.7718Z" fill="#263238"/>
<path d="M129.197 64.2802C129.074 64.2802 128.829 63.6656 128.829 62.8053C128.829 61.9449 128.952 61.3304 129.197 61.3304C129.32 61.3304 129.566 61.9449 129.566 62.8053C129.443 63.5427 129.32 64.2802 129.197 64.2802Z" fill="#263238"/>
<path d="M130.795 63.7885C130.672 63.7885 130.426 63.2969 130.426 62.5595C130.426 61.822 130.426 61.2075 130.672 61.2075C130.795 61.2075 131.041 61.6991 131.041 62.4366C131.164 63.174 131.041 63.7885 130.795 63.7885Z" fill="#263238"/>
<path d="M171.969 90.5822C163.365 86.895 157.22 84.8056 152.55 82.2245C137.801 74.2356 134.237 76.4479 130.795 76.325C124.404 78.7831 118.013 79.2748 111.376 77.677C102.772 78.6602 97.8562 82.7161 88.2695 86.5263L69.096 96.8504L82.8616 116.024L100.56 110.124C102.035 117.499 102.404 123.398 103.387 132.37L105.231 168.505L158.818 167.645L153.41 133.231L150.214 106.068L165.946 112.582L171.969 90.5822Z" fill="#F07D22"/>
<g opacity="0.4">
<path d="M153.287 82.4703C153.287 82.4703 153.287 82.4703 153.41 82.5932C153.533 82.7161 153.656 82.8391 153.779 83.0849C154.024 83.5765 154.024 84.4368 153.656 85.2972C153.164 86.1575 152.304 87.1408 151.075 87.6324C149.723 88.124 148.125 88.124 146.527 88.247C145.667 88.3699 144.806 88.3699 143.946 88.6157C143.086 88.8615 142.225 89.3531 141.488 89.8447C139.89 90.9509 138.538 92.6716 136.818 94.1465C135.957 94.8839 134.974 95.6213 133.868 96.113C132.762 96.6046 131.41 96.7275 130.181 96.4817C127.6 95.9901 125.51 94.5152 123.175 93.409C120.84 92.3029 118.259 92.18 115.923 92.4258C113.465 92.6716 111.253 93.2861 109.041 93.7777C106.828 94.2694 104.739 94.6381 102.65 94.6381C100.56 94.6381 98.7165 94.2694 97.1187 93.5319C95.521 92.6716 94.4148 91.4425 93.8003 90.3364C93.1857 89.1073 92.9399 87.8782 93.0628 86.895C93.1857 85.9117 93.5544 85.1743 93.8003 84.8056C94.169 84.4368 94.2919 84.191 94.2919 84.191C94.4148 84.191 93.4315 84.9285 93.3086 86.895C93.3086 87.8782 93.5544 88.9844 94.169 90.0906C94.7835 91.1967 95.8897 92.4258 97.3645 93.1632C98.8394 93.9007 100.683 94.1465 102.65 94.1465C104.616 94.1465 106.705 93.6548 108.918 93.1632C111.13 92.6716 113.465 92.057 115.923 91.8112C118.382 91.5654 121.086 91.6883 123.544 92.7945C126.002 93.9007 128.091 95.3755 130.426 95.7443C131.533 95.9901 132.762 95.8672 133.745 95.3755C134.851 95.0068 135.711 94.2694 136.572 93.5319C138.292 92.0571 139.644 90.4593 141.365 89.2302C142.225 88.6157 143.086 88.2469 144.069 87.8782C145.052 87.6324 145.913 87.5095 146.773 87.5095C148.494 87.3866 149.969 87.3866 151.321 87.0179C152.55 86.5263 153.41 85.6659 153.779 84.9285C154.27 84.0681 154.27 83.3307 154.024 82.8391C153.41 82.7162 153.287 82.5932 153.287 82.4703Z" fill="black"/>
</g>
<g opacity="0.4">
<path d="M149.231 107.666C149.231 107.666 149.108 107.912 148.74 108.404C148.371 108.895 147.756 109.51 146.896 110.124C146.036 110.739 144.807 111.353 143.209 111.722C141.734 112.091 139.767 112.214 137.924 111.599C135.957 110.985 134.114 109.879 132.024 109.387C129.812 108.895 127.477 109.633 125.141 110.862C122.929 111.968 120.471 113.566 117.644 114.18C114.817 114.795 111.745 114.672 108.918 113.812C107.443 113.32 106.091 112.705 104.862 111.845C103.633 110.985 102.527 110.124 101.421 109.264C100.314 108.404 99.2082 107.666 97.9791 107.175C96.75 106.683 95.521 106.314 94.2919 106.191C91.588 105.7 89.1298 105.823 86.7946 105.7C84.4594 105.577 82.2471 105.331 80.4035 104.594C78.5599 103.856 76.9621 102.75 76.1017 101.398C75.2414 100.046 74.7498 98.694 74.7498 97.5878C74.6269 96.4817 74.9956 95.6213 75.2414 95.1297C75.4872 94.6381 75.733 94.3923 75.733 94.3923C75.733 94.3923 75.6101 94.6381 75.3643 95.2526C75.1185 95.7442 74.9956 96.6046 74.9956 97.7107C75.1185 98.8169 75.4872 100.046 76.4705 101.275C77.3308 102.504 78.8057 103.61 80.6493 104.225C82.4929 104.839 84.5823 105.085 86.9175 105.208C89.2527 105.208 91.7109 105.085 94.2919 105.454C95.6439 105.577 96.873 105.945 98.2249 106.437C99.454 106.929 100.683 107.789 101.789 108.649C102.895 109.51 104.002 110.37 105.231 111.23C106.46 111.968 107.689 112.705 109.164 113.074C111.99 113.934 114.94 114.057 117.644 113.443C120.348 112.828 122.683 111.353 125.019 110.247C126.125 109.633 127.354 109.141 128.583 108.895C129.812 108.649 131.041 108.527 132.27 108.895C134.605 109.51 136.449 110.616 138.292 111.23C140.136 111.845 141.857 111.845 143.455 111.476C144.929 111.108 146.159 110.616 147.019 110.001C148.494 108.772 149.108 107.666 149.231 107.666Z" fill="black"/>
</g>
<g opacity="0.4">
<path d="M168.773 99.6773C168.773 99.8002 167.79 99.9231 166.315 100.783C164.84 101.521 163.12 103.119 161.153 104.716C159.187 106.437 156.974 107.543 155.254 107.789C153.533 108.035 152.427 107.666 152.55 107.543C152.55 107.42 153.656 107.666 155.254 107.297C156.851 106.929 158.818 105.823 160.784 104.102C162.751 102.381 164.594 100.906 166.192 100.169C167.667 99.5544 168.773 99.5544 168.773 99.6773Z" fill="black"/>
</g>
<g opacity="0.4">
<path d="M150.952 129.544C150.952 129.544 150.952 129.789 150.706 130.035C150.583 130.404 150.214 130.773 149.723 131.141C148.617 132.002 146.527 132.493 144.192 131.756C141.857 131.141 139.399 129.544 136.326 129.421C133.253 129.175 129.935 129.912 126.493 130.896C123.052 131.879 119.856 133.108 116.661 133.477C113.588 133.968 110.638 133.599 108.426 132.616C106.214 131.633 104.739 130.281 104.002 129.175C103.633 128.683 103.387 128.192 103.264 127.823C103.141 127.454 103.018 127.331 103.141 127.331C103.264 127.331 103.51 127.946 104.247 129.052C104.985 130.035 106.46 131.387 108.672 132.248C110.761 133.108 113.588 133.477 116.661 132.985C119.734 132.493 122.929 131.387 126.371 130.404C129.812 129.421 133.253 128.683 136.449 128.929C138.047 129.052 139.522 129.544 140.751 130.035C141.98 130.527 143.209 131.141 144.315 131.387C146.527 132.125 148.494 131.633 149.6 131.018C150.706 130.281 150.952 129.544 150.952 129.544Z" fill="black"/>
</g>
<g opacity="0.4">
<path d="M156.36 151.421C156.36 151.421 156.36 151.667 156.36 152.035C156.237 152.404 156.114 153.019 155.622 153.51C154.762 154.617 152.673 155.846 149.969 155.6C148.617 155.477 147.265 154.985 145.913 154.494C144.438 154.002 142.963 153.387 141.365 153.265C138.047 152.773 134.482 154.002 130.795 155.231C128.952 155.846 127.108 156.583 125.387 156.952C123.544 157.443 121.823 157.566 120.102 157.566C116.661 157.566 113.588 156.706 111.253 155.6C108.918 154.494 107.197 153.265 106.091 152.281C105.599 151.79 105.108 151.421 104.862 151.175C104.616 150.929 104.493 150.806 104.493 150.683C104.616 150.561 106.705 153.142 111.376 155.108C113.711 156.091 116.661 156.829 119.979 156.829C121.7 156.829 123.421 156.583 125.141 156.214C126.862 155.723 128.706 155.108 130.549 154.494C134.237 153.142 137.924 152.035 141.365 152.527C143.086 152.773 144.684 153.387 146.036 153.879C147.388 154.371 148.74 154.862 149.969 154.985C152.427 155.354 154.516 154.248 155.376 153.265C156.36 152.281 156.237 151.421 156.36 151.421Z" fill="black"/>
</g>
<g opacity="0.4">
<path d="M114.08 106.806C113.957 106.929 112.974 105.577 111.745 104.102C110.516 102.627 109.409 101.398 109.532 101.275C109.655 101.152 110.884 102.135 112.236 103.733C113.588 105.208 114.326 106.683 114.08 106.806Z" fill="black"/>
</g>
<g opacity="0.4">
<path d="M145.052 98.8169C145.175 98.9398 144.192 100.292 142.717 101.767C141.365 103.242 140.013 104.348 139.89 104.225C139.767 104.102 140.751 102.75 142.225 101.275C143.7 99.8002 144.929 98.694 145.052 98.8169Z" fill="black"/>
</g>
<g opacity="0.4">
<path d="M162.382 97.0962C162.259 97.2191 161.153 96.4817 159.801 95.4984C158.449 94.5152 157.466 93.5319 157.589 93.409C157.712 93.2861 158.818 94.0236 160.17 95.0068C161.522 95.9901 162.505 96.9733 162.382 97.0962Z" fill="black"/>
</g>
<g opacity="0.4">
<path d="M85.3197 93.2862C85.4426 93.2862 85.5655 94.6381 84.951 96.113C84.4594 97.5879 83.599 98.5711 83.3532 98.4482C83.2303 98.3253 83.8448 97.2192 84.3365 95.8672C84.951 94.5152 85.1968 93.2862 85.3197 93.2862Z" fill="black"/>
</g>
<g opacity="0.4">
<path d="M115.063 148.84C114.94 148.963 113.834 147.857 112.728 146.382C111.622 144.907 110.761 143.678 110.884 143.555C111.007 143.432 112.113 144.538 113.22 146.013C114.326 147.488 115.186 148.717 115.063 148.84Z" fill="black"/>
</g>
<g opacity="0.4">
<path d="M130.426 141.834C130.549 141.957 129.443 143.186 127.968 144.661C126.493 146.136 125.141 147.119 125.019 146.996C124.896 146.873 126.002 145.644 127.477 144.169C128.952 142.695 130.304 141.711 130.426 141.834Z" fill="black"/>
</g>
<g opacity="0.4">
<path d="M149.477 146.873C149.354 146.996 148.002 146.259 146.527 145.03C144.929 143.924 143.823 142.817 143.946 142.695C144.069 142.572 145.421 143.309 146.896 144.538C148.371 145.767 149.6 146.75 149.477 146.873Z" fill="black"/>
</g>
<g opacity="0.4">
<path d="M119.242 120.326C119.365 120.448 117.767 121.555 115.801 122.661C113.834 123.767 112.113 124.627 112.113 124.504C111.99 124.381 113.588 123.275 115.555 122.169C117.521 121.063 119.119 120.203 119.242 120.326Z" fill="black"/>
</g>
<g opacity="0.4">
<path d="M136.08 121.8C136.08 121.923 134.605 121.678 133.13 120.571C131.778 119.465 131.287 117.99 131.41 117.867C131.533 117.745 132.27 118.974 133.499 120.08C134.851 121.186 136.08 121.678 136.08 121.8Z" fill="black"/>
</g>
<g opacity="0.4">
<path d="M112.974 83.9452C113.097 84.0681 111.868 84.8056 110.516 85.4201C109.041 86.0346 107.812 86.5263 107.689 86.2804C107.566 86.1575 108.795 85.4201 110.147 84.8056C111.745 84.191 112.974 83.6994 112.974 83.9452Z" fill="black"/>
</g>
<g opacity="0.4">
<path d="M130.304 86.7721C130.181 86.895 128.829 86.4034 127.231 85.543C125.633 84.6827 124.404 83.9452 124.527 83.6994C124.65 83.5765 126.002 84.0681 127.6 84.9285C129.197 85.7888 130.426 86.5263 130.304 86.7721Z" fill="black"/>
</g>
<g opacity="0.4">
<path d="M144.929 81.8558C144.929 81.9787 143.7 82.3474 142.103 82.4703C140.505 82.5932 139.153 82.5932 139.153 82.4703C139.153 82.3474 140.382 81.9787 141.98 81.8558C143.577 81.61 144.929 81.61 144.929 81.8558Z" fill="black"/>
</g>
<g opacity="0.4">
<path d="M116.292 164.941C116.169 165.064 115.063 164.449 113.711 163.466C112.359 162.483 111.499 161.622 111.499 161.376C111.622 161.253 112.728 161.868 114.08 162.851C115.432 163.957 116.415 164.818 116.292 164.941Z" fill="black"/>
</g>
<g opacity="0.4">
<path d="M139.153 161.131C139.276 161.253 138.415 162.483 136.94 163.466C135.466 164.449 133.991 164.941 133.991 164.695C133.868 164.572 135.22 163.834 136.572 162.851C137.924 161.991 138.907 161.008 139.153 161.131Z" fill="black"/>
</g>
<g opacity="0.4">
<path d="M154.024 165.801C153.902 165.924 152.673 165.432 151.075 164.695C149.6 163.957 148.371 163.22 148.494 163.097C148.617 162.974 149.846 163.466 151.443 164.203C152.918 164.818 154.147 165.555 154.024 165.801Z" fill="black"/>
</g>
<path d="M207.735 193.332C207.735 193.332 207.366 193.455 206.751 193.455C206.137 193.578 205.154 193.578 204.048 193.701C201.712 193.824 198.271 193.947 193.969 194.192C185.489 194.438 173.69 194.807 160.784 194.807C154.27 194.807 148.125 194.807 142.471 194.561C136.818 194.315 131.778 192.349 128.337 189.891C124.773 187.433 122.683 184.483 121.7 182.393C120.594 180.304 120.348 178.952 120.348 178.952C120.471 178.952 120.84 180.181 121.946 182.271C123.052 184.36 125.141 187.187 128.706 189.522C132.147 191.857 137.063 193.701 142.594 193.947C148.248 194.192 154.393 194.192 160.907 194.192C173.935 194.07 185.612 193.947 194.092 193.701C198.271 193.578 201.712 193.578 204.17 193.455C205.277 193.455 206.26 193.455 206.874 193.332C207.366 193.332 207.735 193.332 207.735 193.332Z" fill="#455A64"/>
</g>
<defs>
<clipPath id="clip0_75_667">
<rect width="558.733" height="482.9" fill="white" transform="translate(0.76001)"/>
</clipPath>
</defs>
</svg>
