<svg width="36" height="36" viewBox="0 0 36 36" fill="none" xmlns="http://www.w3.org/2000/svg">
<g clip-path="url(#clip0_597_1512)">
<path d="M18 0.421875C8.31094 0.421875 0.421875 8.31094 0.421875 18C0.421875 27.6891 8.31094 35.5781 18 35.5781C27.6891 35.5781 35.5781 27.6961 35.5781 18C35.5781 8.30391 27.6961 0.421875 18 0.421875ZM17.9859 33.2508C9.48516 33.2508 2.5875 26.3602 2.5875 17.8523C2.5875 9.34453 9.47813 2.45391 17.9859 2.45391C26.4937 2.45391 33.3844 9.34453 33.3844 17.8523C33.3844 26.3602 26.4867 33.2508 17.9859 33.2508Z" fill="#4F4F4F"/>
<path d="M23.9272 13.4717C24.6456 13.4717 25.228 12.8893 25.228 12.1709C25.228 11.4525 24.6456 10.8701 23.9272 10.8701C23.2088 10.8701 22.6265 11.4525 22.6265 12.1709C22.6265 12.8893 23.2088 13.4717 23.9272 13.4717Z" fill="#4F4F4F"/>
<path d="M18.1405 12.5366C15.1241 12.5366 12.6772 14.9835 12.6772 17.9999C12.6772 21.0163 15.1241 23.4632 18.1405 23.4632C21.1569 23.4632 23.6038 21.0163 23.6038 17.9999C23.6038 14.9835 21.1569 12.5366 18.1405 12.5366ZM18.1405 21.5015C16.2069 21.5015 14.639 19.9335 14.639 17.9999C14.639 16.0663 16.2069 14.4983 18.1405 14.4983C20.0741 14.4983 21.6421 16.0663 21.6421 17.9999C21.6421 19.9335 20.0741 21.4944 18.1405 21.5015Z" fill="#4F4F4F"/>
<path d="M29.1657 13.4576C29.1657 9.78027 26.1845 6.79199 22.5001 6.79199H13.711C10.0337 6.79199 7.04541 9.77324 7.04541 13.4576V22.2537C7.04541 25.9311 10.0267 28.9193 13.711 28.9193H22.5071C26.1845 28.9193 29.1728 25.9381 29.1728 22.2537L29.1657 13.4576ZM27.0845 22.2537C27.0845 24.7779 25.0313 26.8311 22.5071 26.8311H13.711C11.1868 26.8311 9.13369 24.785 9.13369 22.2537V13.4576C9.13369 10.9264 11.1798 8.88027 13.711 8.88027H22.5071C25.0384 8.88027 27.0845 10.9264 27.0845 13.4576V22.2537Z" fill="#4F4F4F"/>
</g>
<defs>
<clipPath id="clip0_597_1512">
<rect width="36" height="36" fill="white"/>
</clipPath>
</defs>
</svg>
